<?xml version="1.0" standalone="no"?>
<!DOCTYPE svg PUBLIC "-//W3C//DTD SVG 20010904//EN"
 "http://www.w3.org/TR/2001/REC-SVG-20010904/DTD/svg10.dtd">
<svg version="1.0" xmlns="http://www.w3.org/2000/svg"
 width="980.000000pt" height="980.000000pt" viewBox="0 0 980.000000 980.000000"
 preserveAspectRatio="xMidYMid meet">

<g transform="translate(0.000000,980.000000) scale(0.100000,-0.100000)"
fill="#000000" stroke="none">
<path d="M1495 9788 c-51 -18 -86 -49 -106 -92 -16 -35 -19 -67 -19 -223 l0
-182 -417 -3 c-392 -3 -421 -4 -474 -24 -219 -79 -385 -284 -456 -560 -17 -65
-18 -283 -18 -4054 l0 -3985 22 -82 c49 -184 104 -284 224 -404 93 -94 183
-146 287 -168 38 -8 998 -11 3355 -11 2895 0 3310 2 3360 15 215 56 378 243
456 524 l26 96 5 1685 5 1685 858 1485 c472 816 859 1489 860 1494 3 13 -1233
728 -1247 723 -6 -3 -65 -99 -131 -213 -65 -115 -169 -294 -230 -399 l-110
-190 -5 880 c-5 867 -6 881 -27 957 -29 101 -63 185 -104 256 -47 79 -171 201
-240 235 -109 54 -134 57 -521 57 l-358 0 0 183 c0 202 -10 245 -66 284 -54
37 -92 43 -279 43 -187 0 -225 -6 -279 -43 -56 -39 -66 -82 -66 -284 l0 -183
-304 0 -305 0 -3 203 c-3 232 -5 238 -92 282 -48 24 -57 25 -235 25 -201 0
-244 -7 -291 -47 -56 -47 -60 -64 -60 -273 l0 -190 -440 0 -440 0 0 173 c0
195 -9 239 -55 282 -49 47 -92 55 -291 55 -195 0 -237 -7 -285 -47 -53 -45
-59 -72 -59 -278 l0 -185 -440 0 -440 0 0 183 c0 156 -3 188 -19 223 -20 44
-56 74 -110 92 -43 15 -394 15 -436 0z m-125 -1323 c0 -289 8 -316 105 -369
37 -19 55 -21 240 -21 185 0 203 2 240 21 97 53 105 80 105 369 l0 235 440 0
440 0 0 -242 c0 -272 3 -286 71 -340 48 -39 135 -51 319 -46 172 5 222 22 268
91 l27 40 3 249 3 248 440 0 439 0 0 -245 c0 -272 1 -278 64 -333 48 -42 81
-47 291 -47 166 0 183 2 226 22 25 13 56 38 70 55 24 33 24 35 27 291 l3 257
304 0 305 0 0 -235 c0 -289 8 -316 105 -369 37 -19 55 -21 240 -21 185 0 203
2 240 21 97 53 105 79 105 370 l0 236 128 -3 c125 -4 130 -5 204 -42 132 -65
242 -211 300 -397 l23 -75 3 -1157 2 -1157 -1044 -1808 c-575 -994 -1046
-1813 -1048 -1820 -5 -18 1244 -736 1254 -721 4 7 193 334 420 727 l413 715 3
-890 c3 -979 4 -963 -59 -1125 -35 -90 -110 -201 -171 -253 -24 -21 -72 -52
-108 -69 l-65 -32 -2860 0 -2860 0 -60 28 c-176 83 -310 266 -356 491 -18 88
-19 200 -19 3533 0 3727 -3 3501 53 3655 66 182 202 325 362 380 39 14 85 17
208 18 l157 0 0 -235z m7048 -1861 c127 -73 131 -76 118 -97 -8 -12 -510 -881
-1116 -1932 -606 -1050 -1103 -1911 -1105 -1913 -4 -5 -265 151 -265 159 0 14
2222 3859 2230 3859 4 0 66 -34 138 -76z"/>
<path d="M1370 7095 l0 -295 2355 0 2355 0 0 295 0 295 -2355 0 -2355 0 0
-295z"/>
<path d="M1370 5725 l0 -295 2355 0 2355 0 -2 293 -3 292 -2352 3 -2353 2 0
-295z"/>
<path d="M1377 4663 c-4 -3 -7 -136 -7 -295 l0 -288 1765 0 1765 0 0 295 0
295 -1758 0 c-967 0 -1762 -3 -1765 -7z"/>
<path d="M5006 1420 c23 -347 45 -634 48 -637 5 -5 1122 540 1138 555 6 6
-1188 703 -1216 710 -8 2 2 -193 30 -628z"/>
<path d="M8683 8351 c-68 -25 -134 -73 -170 -124 -16 -23 -71 -116 -123 -205
-78 -137 -90 -166 -79 -177 25 -22 1232 -715 1239 -710 10 6 196 334 222 392
17 37 22 68 23 133 0 77 -3 92 -33 152 -19 38 -49 81 -71 100 -47 40 -674 403
-751 435 -71 29 -182 31 -257 4z"/>
</g>
</svg>
