<?xml version="1.0" standalone="no"?>
<!DOCTYPE svg PUBLIC "-//W3C//DTD SVG 20010904//EN"
 "http://www.w3.org/TR/2001/REC-SVG-20010904/DTD/svg10.dtd">
<svg version="1.0" xmlns="http://www.w3.org/2000/svg"
 width="820.000000pt" height="512.000000pt" viewBox="0 0 820.000000 512.000000"
 preserveAspectRatio="xMidYMid meet">

<g transform="translate(0.000000,512.000000) scale(0.100000,-0.100000)"
fill="#000000" stroke="none">
<path d="M3340 5109 c-889 -66 -1558 -351 -1750 -743 -16 -33 -34 -85 -40
-115 -6 -35 -10 -639 -10 -1700 0 -1445 2 -1654 15 -1705 38 -145 149 -289
312 -405 106 -76 302 -173 476 -235 170 -61 219 -60 252 4 22 43 19 84 -10
118 -19 23 -53 39 -147 71 -326 111 -576 278 -654 437 l-29 59 -3 354 -3 354
48 -40 c61 -50 149 -109 233 -156 138 -76 405 -177 470 -177 76 0 126 78 93
147 -19 41 -24 44 -170 94 -320 110 -567 278 -641 436 l-27 58 -3 348 c-2 191
0 347 3 347 4 0 32 -19 63 -43 143 -109 241 -164 431 -242 653 -267 1684 -317
2472 -120 353 89 647 223 829 379 l35 30 5 -230 c4 -177 8 -234 20 -251 41
-62 139 -62 180 0 13 19 15 164 18 997 2 631 -1 1000 -8 1045 -15 103 -76 218
-166 314 -230 245 -688 440 -1234 525 -289 46 -778 66 -1060 45z m530 -209
c734 -34 1319 -216 1596 -494 93 -94 119 -148 119 -246 0 -94 -24 -147 -108
-237 -193 -206 -606 -375 -1121 -458 -281 -45 -766 -61 -1061 -36 -639 56
-1172 238 -1414 483 -164 166 -164 330 0 496 273 276 920 471 1639 495 47 2
99 4 115 5 17 1 122 -3 235 -8z m-2055 -1215 c295 -239 803 -406 1430 -467
169 -16 693 -16 855 0 637 64 1119 221 1428 464 l62 50 0 -350 0 -349 -32 -64
c-141 -283 -682 -512 -1423 -601 -147 -17 -771 -18 -915 0 -542 66 -940 187
-1205 365 -91 61 -197 172 -231 242 l-29 60 -3 348 c-2 191 -1 347 2 347 4 0
31 -20 61 -45z"/>
<path d="M3043 1901 c-72 -24 -127 -65 -163 -119 -54 -82 -60 -120 -60 -397 0
-272 6 -312 54 -386 l26 -38 -30 -47 c-46 -74 -52 -122 -48 -409 3 -256 3
-261 29 -316 33 -71 87 -125 158 -158 l56 -26 1675 0 1675 0 56 26 c71 33 125
87 158 158 26 55 26 60 29 316 4 287 -2 335 -48 409 l-30 46 30 46 c46 74 52
122 48 409 -3 256 -3 261 -29 316 -33 71 -87 125 -158 158 l-56 26 -1660 2
c-1577 2 -1663 2 -1712 -16z m3369 -229 l33 -32 3 -213 c4 -254 0 -291 -38
-329 l-28 -28 -1642 0 -1642 0 -28 28 c-38 38 -42 75 -38 329 l3 212 29 30
c16 16 40 32 55 34 14 2 754 4 1643 3 l1618 -1 32 -33z m-9 -842 c40 -32 47
-77 47 -303 0 -221 -5 -252 -50 -292 -22 -20 -36 -20 -1661 -20 l-1639 0 -32
33 -33 32 -3 213 c-4 254 0 291 38 329 l28 28 1640 0 c1636 0 1639 0 1665 -20z"/>
<path d="M3281 1459 c-78 -78 8 -209 112 -170 29 11 67 64 67 94 0 33 -30 84
-56 96 -46 21 -90 14 -123 -20z"/>
<path d="M5214 1472 c-52 -42 -58 -106 -15 -154 l29 -33 457 -3 c398 -2 460
-1 489 13 69 33 76 126 12 177 -19 16 -60 18 -486 18 -426 0 -467 -2 -486 -18z"/>
<path d="M3304 624 c-94 -46 -57 -193 48 -194 47 0 95 39 104 84 8 43 -16 90
-56 111 -36 19 -57 19 -96 -1z"/>
<path d="M5204 606 c-47 -47 -48 -101 -3 -145 l31 -31 468 0 468 0 31 31 c42
42 43 95 2 141 l-29 33 -467 3 -466 3 -35 -35z"/>
</g>
</svg>
